<?xml version="1.0" standalone="no"?>
<!DOCTYPE svg PUBLIC "-//W3C//DTD SVG 20010904//EN"
 "http://www.w3.org/TR/2001/REC-SVG-20010904/DTD/svg10.dtd">
<svg version="1.0" xmlns="http://www.w3.org/2000/svg"
 width="328.000000pt" height="370.000000pt" viewBox="0 0 328.000000 370.000000"
 preserveAspectRatio="xMidYMid meet">
<metadata>
Created by potrace 1.15, written by Peter Selinger 2001-2017
</metadata>
<g transform="translate(0.000000,370.000000) scale(0.100000,-0.100000)"
fill="#eeeeee" stroke="none">
<path d="M660 3655 c-325 -85 -563 -318 -645 -630 -13 -51 -15 -168 -15 -817
0 -420 4 -759 9 -762 5 -3 21 -32 36 -63 24 -50 116 -146 644 -676 339 -340
642 -638 674 -663 l59 -44 209 0 c193 0 213 2 252 21 28 14 253 232 679 658
569 569 639 643 668 701 18 36 36 66 41 68 5 2 9 331 9 745 0 704 -1 746 -20
824 -36 149 -101 268 -213 389 -108 116 -226 186 -387 231 -77 21 -355 30
-1195 37 l-710 6 -95 -25z m1375 -185 c579 -9 591 -10 706 -72 162 -85 283
-243 329 -426 19 -73 20 -116 20 -758 l0 -680 -25 -50 c-35 -71 -1250 -1284
-1315 -1313 -30 -14 -66 -21 -110 -21 -129 0 -106 -19 -789 667 -513 517 -618
627 -640 673 l-26 55 -3 635 c-3 661 0 738 39 852 57 171 219 340 389 405 142
55 98 54 1425 33z"/>
</g>
</svg>
